@startuml class-diagram-overview
skinparam classAttributeIconSize 0
left to right direction

datasource ..> domain
controller ..> util
controller ..> domain
controller .right.> datasource
webapp ..> controller
webapp <.. controller
util .left.> datasource
util ..> domain

package datasource #DDDDDD {
    class DB
    class BidMapper
    class ListingMapper
    class OrderMapper
    class ShippingDetailsMapper
    class UserMapper
}

package domain #DDDDDD {
    abstract class User
    class Admin
    class StandardUser
    class ShippingDetails
    abstract class Listing
    class AuctionListing
    class FixedPriceListing
    enum Category
    enum Condition
    class Bid
    class Order
}

package controller #DDDDDD {
    package utils #DDDDDD {
        class ListingUtil
    }
    abstract class HttpServlet
    class AccountDetailController
    class AllAccountsController
    class CancelOrderController
    class CheckoutController
    class CreateAuctionListingController
    class CreateFixedListingController
    class DeactivateAccountController
    class DeactivateListingController
    class EditAccountController
    class EditListingController
    class EditOrderController
    class EditPasswordController
    class HomepageController
    class LoginController
    class LogoutController
    class OrderDetailController
    class PlaceBidController
    class PurchasesController
    class RegisterController
    class SalesController
    class ViewListingController
    class ViewListingsController
}

package util #DDDDDD {
    class AuthenticationEnforcer
    interface ServletContextListener
    class BackgroundAuctionManager
    class UnitOfWork
}

package webapp #DDDDDD {}

hide members
